<?xml version="1.0" encoding="utf-8"?>
<!-- Generator: AI, based on user-provided image -->
<svg width="800" height="600" viewBox="0 0 800 600" fill="none" xmlns="http://www.w3.org/2000/svg">
  <rect width="800" height="600" fill="#F3D6F7"/>
  <g>
    <ellipse cx="400" cy="400" rx="340" ry="180" fill="#7B61FF" fill-opacity="0.18"/>
    <ellipse cx="400" cy="350" rx="300" ry="150" fill="#7B61FF" fill-opacity="0.25"/>
    <!-- Main phone/bank illustration -->
    <rect x="320" y="200" width="160" height="200" rx="20" fill="#fff" stroke="#7B61FF" stroke-width="4"/>
    <rect x="350" y="230" width="100" height="60" rx="10" fill="#7B61FF"/>
    <rect x="370" y="250" width="60" height="20" rx="5" fill="#fff"/>
    <circle cx="400" cy="320" r="10" fill="#7B61FF"/>
    <circle cx="430" cy="320" r="10" fill="#7B61FF"/>
    <circle cx="370" cy="320" r="10" fill="#7B61FF"/>
    <circle cx="400" cy="350" r="10" fill="#7B61FF"/>
    <rect x="370" y="370" width="60" height="20" rx="5" fill="#7B61FF"/>
    <rect x="390" y="375" width="20" height="10" rx="3" fill="#fff"/>
    <!-- Card -->
    <rect x="500" y="120" width="120" height="70" rx="10" fill="#FFD600" stroke="#7B61FF" stroke-width="4" transform="rotate(15 560 155)"/>
    <!-- People (simplified) -->
    <circle cx="340" cy="420" r="22" fill="#FFD600"/>
    <rect x="320" y="442" width="40" height="60" rx="10" fill="#7B61FF"/>
    <circle cx="460" cy="420" r="22" fill="#FF6F91"/>
    <rect x="440" y="442" width="40" height="60" rx="10" fill="#7B61FF"/>
    <!-- Shopping cart -->
    <rect x="600" y="420" width="60" height="40" rx="8" fill="#fff" stroke="#7B61FF" stroke-width="3"/>
    <rect x="610" y="430" width="40" height="20" rx="5" fill="#7B61FF"/>
    <!-- Trees -->
    <ellipse cx="200" cy="350" rx="30" ry="80" fill="#7B61FF" fill-opacity="0.3"/>
    <ellipse cx="600" cy="350" rx="30" ry="80" fill="#7B61FF" fill-opacity="0.3"/>
  </g>
</svg>