<svg width="32" height="32" viewBox="0 0 32 32" fill="none" xmlns="http://www.w3.org/2000/svg">
  <g transform="translate(2, 2) scale(0.875)">
    <path d="M16 0C7.163 0 0 7.163 0 16s7.163 16 16 16 16-7.163 16-16S24.837 0 16 0zm0 30C8.268 30 2 23.732 2 16S8.268 2 16 2s14 6.268 14 14-6.268 14-14 14z" fill="currentColor"/>
    <path d="M16 4C9.373 4 4 9.373 4 16s5.373 12 12 12 12-5.373 12-12S22.627 4 16 4zm0 22C10.486 26 6 21.514 6 16S10.486 6 16 6s10 4.486 10 10-4.486 10-10 10z" fill="currentColor"/>
    <path d="M16 8c-4.411 0-8 3.589-8 8s3.589 8 8 8 8-3.589 8-8-3.589-8-8-8zm0 14c-3.314 0-6-2.686-6-6s2.686-6 6-6 6 2.686 6 6-2.686 6-6 6z" fill="currentColor"/>
    <circle cx="16" cy="16" r="3" fill="currentColor"/>
  </g>
</svg> 